<svg xmlns="http://www.w3.org/2000/svg" xmlns:xlink="http://www.w3.org/1999/xlink" width="500" zoomAndPan="magnify" viewBox="0 0 375 374.999991" height="500" preserveAspectRatio="xMidYMid meet" version="1.0"><defs><g/><clipPath id="2a83d2d44a"><path d="M 36.054688 36.054688 L 338.945312 36.054688 L 338.945312 338.945312 L 36.054688 338.945312 Z M 36.054688 36.054688 " clip-rule="nonzero"/></clipPath><clipPath id="ef25b1cf37"><path d="M 187.5 36.054688 C 103.859375 36.054688 36.054688 103.859375 36.054688 187.5 C 36.054688 271.140625 103.859375 338.945312 187.5 338.945312 C 271.140625 338.945312 338.945312 271.140625 338.945312 187.5 C 338.945312 103.859375 271.140625 36.054688 187.5 36.054688 Z M 187.5 36.054688 " clip-rule="nonzero"/></clipPath><clipPath id="d0fec24e0e"><path d="M 59.820312 196.933594 L 71.070312 196.933594 L 71.070312 208.183594 L 59.820312 208.183594 Z M 59.820312 196.933594 " clip-rule="nonzero"/></clipPath><clipPath id="b2b6dd8252"><path d="M 304.164062 196.933594 L 315.414062 196.933594 L 315.414062 208.183594 L 304.164062 208.183594 Z M 304.164062 196.933594 " clip-rule="nonzero"/></clipPath><clipPath id="5fbc16dcbd"><path d="M 112.5 133.3125 L 183 133.3125 L 183 242 L 112.5 242 Z M 112.5 133.3125 " clip-rule="nonzero"/></clipPath><clipPath id="91dfdc19f2"><path d="M 190 133.3125 L 262.5 133.3125 L 262.5 242 L 190 242 Z M 190 133.3125 " clip-rule="nonzero"/></clipPath></defs><g clip-path="url(#2a83d2d44a)"><g clip-path="url(#ef25b1cf37)"><path fill="#4c7031" d="M 36.054688 36.054688 L 338.945312 36.054688 L 338.945312 338.945312 L 36.054688 338.945312 Z M 36.054688 36.054688 " fill-opacity="1" fill-rule="nonzero"/></g></g><g clip-path="url(#d0fec24e0e)"><path fill="#ffffff" d="M 71.070312 202.558594 C 71.070312 202.925781 71.035156 203.292969 70.964844 203.65625 C 70.890625 204.015625 70.785156 204.371094 70.644531 204.710938 C 70.5 205.050781 70.328125 205.375 70.125 205.683594 C 69.917969 205.988281 69.683594 206.273438 69.421875 206.535156 C 69.164062 206.796875 68.878906 207.03125 68.570312 207.234375 C 68.265625 207.441406 67.941406 207.613281 67.597656 207.753906 C 67.257812 207.894531 66.90625 208.003906 66.542969 208.074219 C 66.179688 208.148438 65.816406 208.183594 65.445312 208.183594 C 65.078125 208.183594 64.710938 208.148438 64.347656 208.074219 C 63.988281 208.003906 63.636719 207.894531 63.292969 207.753906 C 62.953125 207.613281 62.628906 207.441406 62.320312 207.234375 C 62.015625 207.03125 61.730469 206.796875 61.46875 206.535156 C 61.207031 206.273438 60.972656 205.988281 60.769531 205.683594 C 60.5625 205.375 60.390625 205.050781 60.25 204.710938 C 60.109375 204.371094 60 204.015625 59.929688 203.65625 C 59.855469 203.292969 59.820312 202.925781 59.820312 202.558594 C 59.820312 202.1875 59.855469 201.824219 59.929688 201.460938 C 60 201.097656 60.109375 200.746094 60.25 200.40625 C 60.390625 200.0625 60.5625 199.738281 60.769531 199.433594 C 60.972656 199.125 61.207031 198.839844 61.46875 198.582031 C 61.730469 198.320312 62.015625 198.085938 62.320312 197.882812 C 62.628906 197.675781 62.953125 197.503906 63.292969 197.359375 C 63.636719 197.21875 63.988281 197.113281 64.347656 197.039062 C 64.710938 196.96875 65.078125 196.933594 65.445312 196.933594 C 65.816406 196.933594 66.179688 196.96875 66.542969 197.039062 C 66.90625 197.113281 67.257812 197.21875 67.597656 197.359375 C 67.941406 197.503906 68.265625 197.675781 68.570312 197.882812 C 68.878906 198.085938 69.164062 198.320312 69.421875 198.582031 C 69.683594 198.839844 69.917969 199.125 70.125 199.433594 C 70.328125 199.738281 70.5 200.0625 70.644531 200.40625 C 70.785156 200.746094 70.890625 201.097656 70.964844 201.460938 C 71.035156 201.824219 71.070312 202.1875 71.070312 202.558594 Z M 71.070312 202.558594 " fill-opacity="1" fill-rule="nonzero"/></g><g fill="#ffffff" fill-opacity="1"><g transform="translate(77.815613, 157.662399)"><g><path d="M -3.703125 -17.015625 C -2.929688 -17.953125 -2.03125 -18.539062 -1 -18.78125 C 0.0195312 -19.019531 1.101562 -18.878906 2.25 -18.359375 C 3.875 -17.617188 4.878906 -16.519531 5.265625 -15.0625 C 5.648438 -13.613281 5.398438 -11.914062 4.515625 -9.96875 L 1.53125 -3.375 C 1.375 -3.039062 1.15625 -2.816406 0.875 -2.703125 C 0.601562 -2.597656 0.304688 -2.617188 -0.015625 -2.765625 L -16.359375 -10.15625 C -16.671875 -10.300781 -16.878906 -10.515625 -16.984375 -10.796875 C -17.085938 -11.085938 -17.0625 -11.398438 -16.90625 -11.734375 L -14.046875 -18.03125 C -13.191406 -19.9375 -12.109375 -21.222656 -10.796875 -21.890625 C -9.484375 -22.554688 -8.066406 -22.539062 -6.546875 -21.84375 C -5.546875 -21.394531 -4.800781 -20.75 -4.3125 -19.90625 C -3.820312 -19.070312 -3.617188 -18.109375 -3.703125 -17.015625 Z M -8.25 -9.03125 L -6 -14 C -5.382812 -15.375 -5.191406 -16.539062 -5.421875 -17.5 C -5.660156 -18.46875 -6.3125 -19.191406 -7.375 -19.671875 C -9.476562 -20.617188 -11.160156 -19.695312 -12.421875 -16.90625 L -14.671875 -11.9375 Z M 2.640625 -10.578125 C 3.296875 -12.015625 3.515625 -13.195312 3.296875 -14.125 C 3.078125 -15.050781 2.398438 -15.769531 1.265625 -16.28125 C -1.003906 -17.3125 -2.78125 -16.421875 -4.0625 -13.609375 L -6.484375 -8.234375 L 0.21875 -5.203125 Z M 2.640625 -10.578125 "/></g></g></g><g fill="#ffffff" fill-opacity="1"><g transform="translate(88.307799, 135.945866)"><g><path d="M 2.15625 -3.015625 C 1.945312 -2.710938 1.691406 -2.53125 1.390625 -2.46875 C 1.085938 -2.414062 0.796875 -2.492188 0.515625 -2.703125 L -14.0625 -13.140625 C -14.34375 -13.347656 -14.503906 -13.601562 -14.546875 -13.90625 C -14.597656 -14.207031 -14.519531 -14.507812 -14.3125 -14.8125 L -8.046875 -23.546875 C -7.847656 -23.828125 -7.625 -23.988281 -7.375 -24.03125 C -7.125 -24.082031 -6.867188 -24.019531 -6.609375 -23.84375 C -6.367188 -23.664062 -6.234375 -23.453125 -6.203125 -23.203125 C -6.171875 -22.953125 -6.253906 -22.6875 -6.453125 -22.40625 L -12.0625 -14.578125 L -6.328125 -10.46875 L -1.0625 -17.828125 C -0.863281 -18.109375 -0.640625 -18.273438 -0.390625 -18.328125 C -0.140625 -18.390625 0.109375 -18.332031 0.359375 -18.15625 C 0.609375 -17.976562 0.742188 -17.757812 0.765625 -17.5 C 0.785156 -17.25 0.695312 -16.984375 0.5 -16.703125 L -4.765625 -9.34375 L 1.21875 -5.0625 L 6.828125 -12.890625 C 7.023438 -13.171875 7.242188 -13.335938 7.484375 -13.390625 C 7.734375 -13.453125 7.992188 -13.382812 8.265625 -13.1875 C 8.503906 -13.007812 8.640625 -12.796875 8.671875 -12.546875 C 8.703125 -12.296875 8.617188 -12.03125 8.421875 -11.75 Z M 2.15625 -3.015625 "/></g></g></g><g fill="#ffffff" fill-opacity="1"><g transform="translate(101.208586, 118.676007)"><g><path d="M 6.3125 -5.828125 C 6.050781 -5.578125 5.757812 -5.453125 5.4375 -5.453125 C 5.125 -5.460938 4.84375 -5.597656 4.59375 -5.859375 L -7.265625 -18.28125 L -11.71875 -14.015625 C -11.96875 -13.773438 -12.21875 -13.648438 -12.46875 -13.640625 C -12.726562 -13.640625 -12.972656 -13.757812 -13.203125 -14 C -13.429688 -14.238281 -13.535156 -14.484375 -13.515625 -14.734375 C -13.492188 -14.992188 -13.359375 -15.242188 -13.109375 -15.484375 L -2.453125 -25.65625 C -2.203125 -25.894531 -1.945312 -26.019531 -1.6875 -26.03125 C -1.425781 -26.039062 -1.179688 -25.925781 -0.953125 -25.6875 C -0.722656 -25.445312 -0.617188 -25.195312 -0.640625 -24.9375 C -0.671875 -24.675781 -0.8125 -24.425781 -1.0625 -24.1875 L -5.53125 -19.921875 L 6.328125 -7.5 C 6.578125 -7.238281 6.695312 -6.953125 6.6875 -6.640625 C 6.6875 -6.335938 6.5625 -6.066406 6.3125 -5.828125 Z M 6.3125 -5.828125 "/></g></g></g><g fill="#ffffff" fill-opacity="1"><g transform="translate(117.436426, 103.82186)"><g><path d="M 7.296875 -4.53125 C 6.992188 -4.332031 6.6875 -4.265625 6.375 -4.328125 C 6.070312 -4.398438 5.820312 -4.585938 5.625 -4.890625 L -3.6875 -19.328125 L -8.875 -15.984375 C -9.164062 -15.796875 -9.4375 -15.71875 -9.6875 -15.75 C -9.9375 -15.789062 -10.148438 -15.945312 -10.328125 -16.21875 C -10.515625 -16.5 -10.570312 -16.765625 -10.5 -17.015625 C -10.425781 -17.265625 -10.242188 -17.484375 -9.953125 -17.671875 L 2.421875 -25.65625 C 2.710938 -25.84375 2.984375 -25.914062 3.234375 -25.875 C 3.484375 -25.832031 3.703125 -25.671875 3.890625 -25.390625 C 4.066406 -25.117188 4.117188 -24.859375 4.046875 -24.609375 C 3.972656 -24.367188 3.789062 -24.15625 3.5 -23.96875 L -1.6875 -20.625 L 7.625 -6.1875 C 7.820312 -5.882812 7.890625 -5.582031 7.828125 -5.28125 C 7.773438 -4.976562 7.597656 -4.726562 7.296875 -4.53125 Z M 7.296875 -4.53125 "/></g></g></g><g fill="#ffffff" fill-opacity="1"><g transform="translate(136.188521, 92.291845)"><g><path d="M 3.4375 -1.390625 C 3.09375 -1.253906 2.78125 -1.238281 2.5 -1.34375 C 2.21875 -1.457031 2.007812 -1.679688 1.875 -2.015625 L -4.875 -18.625 C -5 -18.945312 -5 -19.25 -4.875 -19.53125 C -4.75 -19.8125 -4.515625 -20.019531 -4.171875 -20.15625 L 5.78125 -24.203125 C 6.101562 -24.328125 6.378906 -24.34375 6.609375 -24.25 C 6.847656 -24.164062 7.023438 -23.976562 7.140625 -23.6875 C 7.253906 -23.414062 7.257812 -23.160156 7.15625 -22.921875 C 7.050781 -22.691406 6.835938 -22.515625 6.515625 -22.390625 L -2.40625 -18.765625 L 0.234375 -12.234375 L 8.625 -15.640625 C 8.9375 -15.765625 9.21875 -15.785156 9.46875 -15.703125 C 9.71875 -15.617188 9.898438 -15.4375 10.015625 -15.15625 C 10.117188 -14.875 10.113281 -14.613281 10 -14.375 C 9.882812 -14.144531 9.671875 -13.96875 9.359375 -13.84375 L 0.96875 -10.4375 L 3.734375 -3.625 L 12.65625 -7.25 C 12.976562 -7.375 13.253906 -7.394531 13.484375 -7.3125 C 13.722656 -7.238281 13.90625 -7.046875 14.03125 -6.734375 C 14.144531 -6.460938 14.144531 -6.207031 14.03125 -5.96875 C 13.925781 -5.738281 13.710938 -5.5625 13.390625 -5.4375 Z M 3.4375 -1.390625 "/></g></g></g><g fill="#ffffff" fill-opacity="1"><g transform="translate(156.216464, 84.513557)"><g><path d="M 17.359375 -4.796875 C 17.523438 -4.617188 17.628906 -4.410156 17.671875 -4.171875 C 17.734375 -3.898438 17.671875 -3.648438 17.484375 -3.421875 C 17.296875 -3.203125 17.066406 -3.066406 16.796875 -3.015625 C 16.347656 -2.929688 15.972656 -3.0625 15.671875 -3.40625 L 10.734375 -8.65625 C 10.109375 -9.332031 9.503906 -9.765625 8.921875 -9.953125 C 8.347656 -10.148438 7.601562 -10.160156 6.6875 -9.984375 L 3.15625 -9.3125 L 4.546875 -1.953125 C 4.617188 -1.585938 4.566406 -1.273438 4.390625 -1.015625 C 4.222656 -0.765625 3.972656 -0.609375 3.640625 -0.546875 C 3.273438 -0.472656 2.96875 -0.523438 2.71875 -0.703125 C 2.476562 -0.878906 2.320312 -1.148438 2.25 -1.515625 L -1.125 -19.21875 C -1.1875 -19.5625 -1.128906 -19.859375 -0.953125 -20.109375 C -0.773438 -20.359375 -0.503906 -20.515625 -0.140625 -20.578125 L 6.859375 -21.921875 C 9.015625 -22.328125 10.753906 -22.15625 12.078125 -21.40625 C 13.398438 -20.664062 14.238281 -19.367188 14.59375 -17.515625 C 14.894531 -15.929688 14.675781 -14.570312 13.9375 -13.4375 C 13.207031 -12.300781 12.019531 -11.46875 10.375 -10.9375 C 10.863281 -10.882812 11.328125 -10.722656 11.765625 -10.453125 C 12.210938 -10.179688 12.679688 -9.785156 13.171875 -9.265625 Z M 8.46875 -12.3125 C 10.007812 -12.601562 11.101562 -13.140625 11.75 -13.921875 C 12.394531 -14.710938 12.59375 -15.757812 12.34375 -17.0625 C 12.101562 -18.320312 11.546875 -19.191406 10.671875 -19.671875 C 9.796875 -20.160156 8.578125 -20.253906 7.015625 -19.953125 L 1.328125 -18.875 L 2.78125 -11.234375 Z M 8.46875 -12.3125 "/></g></g></g><g fill="#ffffff" fill-opacity="1"><g transform="translate(180.670462, 80.770434)"><g/></g></g><g fill="#ffffff" fill-opacity="1"><g transform="translate(193.112388, 80.241997)"><g><path d="M 20.8125 -17.65625 C 21.164062 -17.601562 21.425781 -17.453125 21.59375 -17.203125 C 21.757812 -16.960938 21.816406 -16.660156 21.765625 -16.296875 L 19.234375 1.65625 C 19.179688 2.007812 19.039062 2.28125 18.8125 2.46875 C 18.582031 2.65625 18.289062 2.722656 17.9375 2.671875 C 17.570312 2.628906 17.296875 2.484375 17.109375 2.234375 C 16.929688 1.984375 16.867188 1.679688 16.921875 1.328125 L 18.0625 -6.8125 L 6.078125 -8.515625 L 4.9375 -0.375 C 4.882812 -0.0195312 4.734375 0.25 4.484375 0.4375 C 4.242188 0.632812 3.945312 0.707031 3.59375 0.65625 C 3.238281 0.601562 2.972656 0.453125 2.796875 0.203125 C 2.628906 -0.046875 2.570312 -0.347656 2.625 -0.703125 L 5.15625 -18.65625 C 5.207031 -19.019531 5.347656 -19.289062 5.578125 -19.46875 C 5.816406 -19.65625 6.113281 -19.722656 6.46875 -19.671875 C 6.820312 -19.617188 7.085938 -19.472656 7.265625 -19.234375 C 7.453125 -18.992188 7.519531 -18.691406 7.46875 -18.328125 L 6.359375 -10.5 L 18.34375 -8.796875 L 19.453125 -16.625 C 19.503906 -16.988281 19.648438 -17.257812 19.890625 -17.4375 C 20.140625 -17.625 20.445312 -17.695312 20.8125 -17.65625 Z M 20.8125 -17.65625 "/></g></g></g><g fill="#ffffff" fill-opacity="1"><g transform="translate(219.177958, 84.678804)"><g><path d="M 3.484375 1.25 C 3.140625 1.132812 2.898438 0.9375 2.765625 0.65625 C 2.640625 0.382812 2.632812 0.0820312 2.75 -0.25 L 8.84375 -17.109375 C 8.957031 -17.441406 9.148438 -17.664062 9.421875 -17.78125 C 9.703125 -17.90625 10.015625 -17.910156 10.359375 -17.796875 L 20.46875 -14.140625 C 20.789062 -14.023438 21.007812 -13.851562 21.125 -13.625 C 21.25 -13.40625 21.253906 -13.148438 21.140625 -12.859375 C 21.046875 -12.578125 20.878906 -12.382812 20.640625 -12.28125 C 20.398438 -12.175781 20.117188 -12.179688 19.796875 -12.296875 L 10.75 -15.5625 L 8.359375 -8.9375 L 16.859375 -5.875 C 17.179688 -5.75 17.40625 -5.570312 17.53125 -5.34375 C 17.65625 -5.125 17.664062 -4.875 17.5625 -4.59375 C 17.457031 -4.3125 17.285156 -4.117188 17.046875 -4.015625 C 16.804688 -3.921875 16.523438 -3.9375 16.203125 -4.0625 L 7.703125 -7.125 L 5.203125 -0.203125 L 14.25 3.0625 C 14.570312 3.175781 14.796875 3.34375 14.921875 3.5625 C 15.046875 3.78125 15.050781 4.046875 14.9375 4.359375 C 14.832031 4.640625 14.660156 4.828125 14.421875 4.921875 C 14.191406 5.023438 13.914062 5.019531 13.59375 4.90625 Z M 3.484375 1.25 "/></g></g></g><g fill="#ffffff" fill-opacity="1"><g transform="translate(239.265529, 92.211515)"><g><path d="M 17.71875 9.25 C 17.707031 9.414062 17.65625 9.570312 17.5625 9.71875 C 17.414062 9.957031 17.195312 10.101562 16.90625 10.15625 C 16.613281 10.207031 16.332031 10.148438 16.0625 9.984375 C 15.65625 9.734375 15.492188 9.363281 15.578125 8.875 L 16.265625 3.84375 L 7.03125 -1.8125 L 2.828125 1.09375 C 2.429688 1.382812 2.023438 1.40625 1.609375 1.15625 C 1.347656 1 1.171875 0.773438 1.078125 0.484375 C 0.984375 0.191406 1.015625 -0.078125 1.171875 -0.328125 C 1.253906 -0.453125 1.367188 -0.554688 1.515625 -0.640625 L 18.03125 -11.96875 C 18.269531 -12.132812 18.519531 -12.210938 18.78125 -12.203125 C 19.050781 -12.203125 19.300781 -12.128906 19.53125 -11.984375 C 19.78125 -11.835938 19.96875 -11.640625 20.09375 -11.390625 C 20.21875 -11.148438 20.257812 -10.894531 20.21875 -10.625 Z M 8.78125 -3.015625 L 16.546875 1.71875 L 18.03125 -9.453125 Z M 8.78125 -3.015625 "/></g></g></g><g fill="#ffffff" fill-opacity="1"><g transform="translate(260.736958, 106.184319)"><g><path d="M 2.671875 2.46875 C 2.429688 2.25 2.300781 1.988281 2.28125 1.6875 C 2.257812 1.394531 2.359375 1.132812 2.578125 0.90625 L 14.859375 -12.390625 C 15.109375 -12.660156 15.378906 -12.804688 15.671875 -12.828125 C 15.972656 -12.847656 16.257812 -12.738281 16.53125 -12.5 C 16.789062 -12.25 16.925781 -11.96875 16.9375 -11.65625 C 16.945312 -11.351562 16.828125 -11.066406 16.578125 -10.796875 L 4.9375 1.8125 L 11.75 8.09375 C 12 8.332031 12.132812 8.578125 12.15625 8.828125 C 12.1875 9.085938 12.085938 9.34375 11.859375 9.59375 C 11.640625 9.832031 11.398438 9.945312 11.140625 9.9375 C 10.878906 9.9375 10.625 9.816406 10.375 9.578125 Z M 2.671875 2.46875 "/></g></g></g><g fill="#ffffff" fill-opacity="1"><g transform="translate(275.46454, 120.292822)"><g><path d="M 5.046875 6.953125 C 4.828125 6.660156 4.734375 6.359375 4.765625 6.046875 C 4.804688 5.742188 4.972656 5.484375 5.265625 5.265625 L 19.015625 -5.015625 L 15.3125 -9.953125 C 15.101562 -10.234375 15.007812 -10.5 15.03125 -10.75 C 15.0625 -11.007812 15.203125 -11.238281 15.453125 -11.4375 C 15.722656 -11.632812 15.984375 -11.707031 16.234375 -11.65625 C 16.484375 -11.613281 16.710938 -11.453125 16.921875 -11.171875 L 25.75 0.625 C 25.957031 0.894531 26.050781 1.160156 26.03125 1.421875 C 26.007812 1.679688 25.863281 1.910156 25.59375 2.109375 C 25.34375 2.304688 25.085938 2.378906 24.828125 2.328125 C 24.578125 2.273438 24.347656 2.113281 24.140625 1.84375 L 20.453125 -3.109375 L 6.703125 7.171875 C 6.410156 7.390625 6.113281 7.476562 5.8125 7.4375 C 5.507812 7.40625 5.253906 7.242188 5.046875 6.953125 Z M 5.046875 6.953125 "/></g></g></g><g fill="#ffffff" fill-opacity="1"><g transform="translate(288.372307, 137.951601)"><g><path d="M 26.125 7.84375 C 26.28125 8.175781 26.300781 8.476562 26.1875 8.75 C 26.070312 9.019531 25.851562 9.226562 25.53125 9.375 L 9.09375 17.015625 C 8.757812 17.171875 8.453125 17.207031 8.171875 17.125 C 7.890625 17.039062 7.671875 16.832031 7.515625 16.5 C 7.359375 16.164062 7.332031 15.851562 7.4375 15.5625 C 7.550781 15.28125 7.773438 15.0625 8.109375 14.90625 L 15.5625 11.453125 L 10.453125 0.46875 L 3 3.921875 C 2.664062 4.078125 2.351562 4.101562 2.0625 4 C 1.78125 3.90625 1.5625 3.691406 1.40625 3.359375 C 1.257812 3.035156 1.238281 2.734375 1.34375 2.453125 C 1.457031 2.179688 1.679688 1.96875 2.015625 1.8125 L 18.453125 -5.828125 C 18.773438 -5.972656 19.078125 -6 19.359375 -5.90625 C 19.648438 -5.820312 19.867188 -5.617188 20.015625 -5.296875 C 20.171875 -4.960938 20.191406 -4.648438 20.078125 -4.359375 C 19.972656 -4.078125 19.757812 -3.863281 19.4375 -3.71875 L 12.265625 -0.375 L 17.375 10.609375 L 24.546875 7.265625 C 24.867188 7.117188 25.171875 7.09375 25.453125 7.1875 C 25.742188 7.289062 25.96875 7.507812 26.125 7.84375 Z M 26.125 7.84375 "/></g></g></g><g clip-path="url(#b2b6dd8252)"><path fill="#ffffff" d="M 315.414062 202.558594 C 315.414062 202.925781 315.378906 203.292969 315.304688 203.65625 C 315.234375 204.015625 315.128906 204.371094 314.984375 204.710938 C 314.84375 205.050781 314.671875 205.375 314.464844 205.683594 C 314.261719 205.988281 314.027344 206.273438 313.765625 206.535156 C 313.503906 206.796875 313.222656 207.03125 312.914062 207.234375 C 312.609375 207.441406 312.285156 207.613281 311.941406 207.753906 C 311.601562 207.894531 311.25 208.003906 310.886719 208.074219 C 310.523438 208.148438 310.160156 208.183594 309.789062 208.183594 C 309.421875 208.183594 309.054688 208.148438 308.691406 208.074219 C 308.328125 208.003906 307.976562 207.894531 307.636719 207.753906 C 307.296875 207.613281 306.972656 207.441406 306.664062 207.234375 C 306.355469 207.03125 306.074219 206.796875 305.8125 206.535156 C 305.550781 206.273438 305.316406 205.988281 305.113281 205.683594 C 304.90625 205.375 304.734375 205.050781 304.59375 204.710938 C 304.453125 204.371094 304.34375 204.015625 304.273438 203.65625 C 304.199219 203.292969 304.164062 202.925781 304.164062 202.558594 C 304.164062 202.1875 304.199219 201.824219 304.273438 201.460938 C 304.34375 201.097656 304.453125 200.746094 304.59375 200.40625 C 304.734375 200.0625 304.90625 199.738281 305.113281 199.433594 C 305.316406 199.125 305.550781 198.839844 305.8125 198.582031 C 306.074219 198.320312 306.355469 198.085938 306.664062 197.882812 C 306.972656 197.675781 307.296875 197.503906 307.636719 197.359375 C 307.976562 197.21875 308.328125 197.113281 308.691406 197.039062 C 309.054688 196.96875 309.421875 196.933594 309.789062 196.933594 C 310.160156 196.933594 310.523438 196.96875 310.886719 197.039062 C 311.25 197.113281 311.601562 197.21875 311.941406 197.359375 C 312.285156 197.503906 312.609375 197.675781 312.914062 197.882812 C 313.222656 198.085938 313.503906 198.320312 313.765625 198.582031 C 314.027344 198.839844 314.261719 199.125 314.464844 199.433594 C 314.671875 199.738281 314.84375 200.0625 314.984375 200.40625 C 315.128906 200.746094 315.234375 201.097656 315.304688 201.460938 C 315.378906 201.824219 315.414062 202.1875 315.414062 202.558594 Z M 315.414062 202.558594 " fill-opacity="1" fill-rule="nonzero"/></g><g clip-path="url(#5fbc16dcbd)"><path fill="#8ed24d" d="M 177.414062 133.375 L 177.414062 165.097656 L 174.449219 165.097656 L 174.449219 133.375 L 169.878906 133.375 L 169.878906 165.097656 L 166.917969 165.097656 L 166.917969 133.375 L 162.347656 133.375 L 162.347656 165.097656 L 159.386719 165.097656 L 159.386719 133.375 L 154.625 133.375 C 154.578125 137.097656 154.761719 160.511719 154.761719 163.976562 C 154.761719 171.242188 156.691406 174.777344 159.722656 176.480469 C 163.699219 178.71875 166.027344 183.042969 165.703125 187.589844 L 164.074219 210.488281 C 161.746094 201.734375 155.0625 191.046875 137.03125 185.777344 C 150.507812 186.808594 160.945312 196.636719 160.945312 196.636719 C 160.269531 160.371094 112.496094 179.785156 112.496094 179.785156 C 112.496094 179.785156 120.210938 184.140625 125.527344 191.15625 C 133.679688 201.917969 143.046875 215.160156 157.148438 202.773438 C 157.367188 203.089844 157.582031 203.410156 157.796875 203.738281 C 161.769531 209.769531 163.613281 216.953125 163.101562 224.160156 L 162.316406 235.144531 C 162.066406 238.675781 164.859375 241.675781 168.398438 241.675781 C 171.9375 241.675781 174.730469 238.675781 174.480469 235.144531 L 171.09375 187.589844 C 170.769531 183.042969 173.101562 178.71875 177.074219 176.480469 C 180.105469 174.777344 182.035156 171.242188 182.035156 163.976562 C 182.035156 160.511719 182.21875 137.097656 182.175781 133.375 L 177.414062 133.375 " fill-opacity="1" fill-rule="nonzero"/></g><g clip-path="url(#91dfdc19f2)"><path fill="#ffffff" d="M 214.042969 196.636719 C 214.042969 196.636719 224.480469 186.808594 237.960938 185.777344 C 220.257812 190.949219 213.492188 201.339844 211.046875 210 L 209.445312 187.457031 C 209.109375 182.777344 211.585938 178.347656 215.746094 176.175781 C 219.9375 173.984375 222.6875 169.570312 222.6875 161.546875 C 222.6875 148.625 215.554688 133.324219 206.757812 133.324219 C 197.960938 133.324219 190.828125 148.625 190.828125 161.546875 C 190.828125 169.570312 193.578125 173.984375 197.773438 176.175781 C 201.929688 178.347656 204.40625 182.777344 204.074219 187.457031 L 200.675781 235.144531 C 200.425781 238.675781 203.222656 241.675781 206.757812 241.675781 C 210.296875 241.675781 213.09375 238.675781 212.839844 235.144531 L 212.042969 223.933594 C 211.511719 216.472656 213.511719 209.042969 217.761719 202.890625 C 217.789062 202.851562 217.816406 202.8125 217.84375 202.773438 C 231.941406 215.160156 241.3125 201.917969 249.460938 191.15625 C 254.777344 184.140625 262.492188 179.785156 262.492188 179.785156 C 262.492188 179.785156 214.722656 160.367188 214.042969 196.636719 " fill-opacity="1" fill-rule="nonzero"/></g><g fill="#ffffff" fill-opacity="1"><g transform="translate(101.789917, 277.658946)"><g><path d="M 9.828125 -3.484375 C 9.828125 -3.003906 9.734375 -2.550781 9.546875 -2.125 C 9.367188 -1.707031 9.125 -1.335938 8.8125 -1.015625 C 8.5 -0.703125 8.125 -0.453125 7.6875 -0.265625 C 7.257812 -0.0859375 6.804688 0 6.328125 0 L 0.984375 0 L 0.984375 -12.5 L 5.875 -12.5 C 6.289062 -12.5 6.6875 -12.414062 7.0625 -12.25 C 7.4375 -12.082031 7.765625 -11.859375 8.046875 -11.578125 C 8.335938 -11.296875 8.5625 -10.960938 8.71875 -10.578125 C 8.882812 -10.203125 8.96875 -9.796875 8.96875 -9.359375 C 8.96875 -8.816406 8.878906 -8.320312 8.703125 -7.875 C 8.523438 -7.4375 8.238281 -7.066406 7.84375 -6.765625 C 8.507812 -6.515625 9.003906 -6.09375 9.328125 -5.5 C 9.660156 -4.914062 9.828125 -4.242188 9.828125 -3.484375 Z M 2.8125 -7.4375 C 3.289062 -7.425781 3.726562 -7.421875 4.125 -7.421875 L 5.890625 -7.421875 C 6.335938 -7.421875 6.710938 -7.585938 7.015625 -7.921875 C 7.316406 -8.253906 7.46875 -8.65625 7.46875 -9.125 C 7.46875 -9.613281 7.316406 -10.019531 7.015625 -10.34375 C 6.710938 -10.675781 6.335938 -10.84375 5.890625 -10.84375 L 2.8125 -10.84375 Z M 2.8125 -1.703125 C 2.894531 -1.691406 3.078125 -1.6875 3.359375 -1.6875 L 6.328125 -1.6875 C 6.578125 -1.6875 6.804688 -1.738281 7.015625 -1.84375 C 7.234375 -1.957031 7.425781 -2.101562 7.59375 -2.28125 C 7.757812 -2.46875 7.890625 -2.679688 7.984375 -2.921875 C 8.078125 -3.171875 8.125 -3.4375 8.125 -3.71875 C 8.125 -4 8.078125 -4.257812 7.984375 -4.5 C 7.890625 -4.738281 7.757812 -4.945312 7.59375 -5.125 C 7.425781 -5.3125 7.234375 -5.457031 7.015625 -5.5625 C 6.804688 -5.675781 6.578125 -5.734375 6.328125 -5.734375 L 2.8125 -5.734375 Z M 2.8125 -1.703125 "/></g></g></g><g fill="#ffffff" fill-opacity="1"><g transform="translate(119.540745, 277.658946)"><g><path d="M 8.625 -12.5 L 8.625 -10.84375 L 2.8125 -10.84375 L 2.8125 -7.4375 L 7.984375 -7.4375 L 7.984375 -5.734375 L 2.8125 -5.734375 L 2.8125 -1.703125 L 8.625 -1.703125 L 8.625 0 L 0.984375 0 L 0.984375 -12.5 Z M 8.625 -12.5 "/></g></g></g><g fill="#ffffff" fill-opacity="1"><g transform="translate(136.392697, 277.658946)"><g><path d="M 3.46875 -10.84375 L 0.09375 -10.84375 L 0.09375 -12.5 L 8.703125 -12.5 L 8.703125 -10.84375 L 5.3125 -10.84375 L 5.3125 0 L 3.46875 0 Z M 3.46875 -10.84375 "/></g></g></g><g fill="#ffffff" fill-opacity="1"><g transform="translate(152.768782, 277.658946)"><g><path d="M 3.46875 -10.84375 L 0.09375 -10.84375 L 0.09375 -12.5 L 8.703125 -12.5 L 8.703125 -10.84375 L 5.3125 -10.84375 L 5.3125 0 L 3.46875 0 Z M 3.46875 -10.84375 "/></g></g></g><g fill="#ffffff" fill-opacity="1"><g transform="translate(169.144864, 277.658946)"><g><path d="M 8.625 -12.5 L 8.625 -10.84375 L 2.8125 -10.84375 L 2.8125 -7.4375 L 7.984375 -7.4375 L 7.984375 -5.734375 L 2.8125 -5.734375 L 2.8125 -1.703125 L 8.625 -1.703125 L 8.625 0 L 0.984375 0 L 0.984375 -12.5 Z M 8.625 -12.5 "/></g></g></g><g fill="#ffffff" fill-opacity="1"><g transform="translate(185.996815, 277.658946)"><g><path d="M 11.296875 0 L 8.984375 0 L 5.0625 -5.390625 L 2.875 -5.390625 L 2.875 0 L 1.015625 0 L 1.015625 -12.5 L 6.09375 -12.5 C 6.59375 -12.5 7.0625 -12.40625 7.5 -12.21875 C 7.9375 -12.03125 8.316406 -11.773438 8.640625 -11.453125 C 8.960938 -11.140625 9.21875 -10.765625 9.40625 -10.328125 C 9.59375 -9.898438 9.6875 -9.441406 9.6875 -8.953125 C 9.6875 -8.546875 9.625 -8.160156 9.5 -7.796875 C 9.375 -7.429688 9.195312 -7.097656 8.96875 -6.796875 C 8.738281 -6.503906 8.460938 -6.25 8.140625 -6.03125 C 7.828125 -5.8125 7.484375 -5.648438 7.109375 -5.546875 Z M 6.09375 -7.125 C 6.34375 -7.125 6.578125 -7.171875 6.796875 -7.265625 C 7.023438 -7.367188 7.21875 -7.5 7.375 -7.65625 C 7.53125 -7.820312 7.65625 -8.019531 7.75 -8.25 C 7.84375 -8.476562 7.890625 -8.722656 7.890625 -8.984375 C 7.890625 -9.242188 7.84375 -9.484375 7.75 -9.703125 C 7.65625 -9.929688 7.53125 -10.128906 7.375 -10.296875 C 7.21875 -10.472656 7.023438 -10.609375 6.796875 -10.703125 C 6.578125 -10.804688 6.34375 -10.859375 6.09375 -10.859375 L 2.875 -10.859375 L 2.875 -7.109375 Z M 6.09375 -7.125 "/></g></g></g><g fill="#ffffff" fill-opacity="1"><g transform="translate(204.734655, 277.658946)"><g/></g></g><g fill="#ffffff" fill-opacity="1"><g transform="translate(216.510613, 277.658946)"><g><path d="M 1.046875 0 L 1.046875 -12.5 L 2.890625 -12.5 L 2.890625 -1.703125 L 8.671875 -1.703125 L 8.671875 0 Z M 1.046875 0 "/></g></g></g><g fill="#ffffff" fill-opacity="1"><g transform="translate(232.728069, 277.658946)"><g><path d="M 4.375 -10.984375 L 4.375 -1.515625 L 5.28125 -1.515625 L 5.28125 0 L 1.609375 0 L 1.609375 -1.515625 L 2.53125 -1.515625 L 2.53125 -10.984375 L 1.609375 -10.984375 L 1.609375 -12.5 L 5.28125 -12.5 L 5.28125 -10.984375 Z M 4.375 -10.984375 "/></g></g></g><g fill="#ffffff" fill-opacity="1"><g transform="translate(246.830531, 277.658946)"><g><path d="M 9.40625 -12.5 L 9.40625 -10.84375 L 2.8125 -10.84375 L 2.8125 -7.4375 L 8.796875 -7.4375 L 8.796875 -5.734375 L 2.8125 -5.734375 L 2.8125 0 L 0.984375 0 L 0.984375 -12.5 Z M 9.40625 -12.5 "/></g></g></g><g fill="#ffffff" fill-opacity="1"><g transform="translate(263.523867, 277.658946)"><g><path d="M 8.625 -12.5 L 8.625 -10.84375 L 2.8125 -10.84375 L 2.8125 -7.4375 L 7.984375 -7.4375 L 7.984375 -5.734375 L 2.8125 -5.734375 L 2.8125 -1.703125 L 8.625 -1.703125 L 8.625 0 L 0.984375 0 L 0.984375 -12.5 Z M 8.625 -12.5 "/></g></g></g></svg>